<mxfile host="app.diagrams.net" agent="Mozilla/5.0 (Windows NT 10.0; Win64; x64) AppleWebKit/537.36 (KHTML, like Gecko) Chrome/129.0.0.0 Safari/537.36" version="24.7.17">
  <diagram name="Page-1" id="ntQrlPH7C8MF4WyNAdyh">
    <mxGraphModel dx="1500" dy="746" grid="1" gridSize="10" guides="1" tooltips="1" connect="1" arrows="1" fold="1" page="1" pageScale="1" pageWidth="850" pageHeight="1100" math="0" shadow="0">
      <root>
        <mxCell id="0" />
        <mxCell id="1" parent="0" />
        <mxCell id="yliCuPorpiqj2RYnoDID-1" value="" style="sketch=0;outlineConnect=0;fontColor=#232F3E;gradientColor=none;fillColor=#232F3D;strokeColor=none;dashed=0;verticalLabelPosition=bottom;verticalAlign=top;align=center;html=1;fontSize=12;fontStyle=0;aspect=fixed;pointerEvents=1;shape=mxgraph.aws4.traditional_server;" vertex="1" parent="1">
          <mxGeometry x="215" y="460" width="45" height="78" as="geometry" />
        </mxCell>
        <mxCell id="yliCuPorpiqj2RYnoDID-20" style="rounded=0;orthogonalLoop=1;jettySize=auto;html=1;endArrow=none;endFill=0;dashed=1;fillColor=#d5e8d4;strokeColor=#82b366;" edge="1" parent="1" source="yliCuPorpiqj2RYnoDID-2" target="yliCuPorpiqj2RYnoDID-1">
          <mxGeometry relative="1" as="geometry" />
        </mxCell>
        <mxCell id="yliCuPorpiqj2RYnoDID-2" value="" style="sketch=0;outlineConnect=0;fontColor=#232F3E;gradientColor=none;fillColor=#232F3D;strokeColor=none;dashed=0;verticalLabelPosition=bottom;verticalAlign=top;align=center;html=1;fontSize=12;fontStyle=0;aspect=fixed;pointerEvents=1;shape=mxgraph.aws4.traditional_server;" vertex="1" parent="1">
          <mxGeometry x="215" y="290" width="45" height="78" as="geometry" />
        </mxCell>
        <mxCell id="yliCuPorpiqj2RYnoDID-19" style="rounded=0;orthogonalLoop=1;jettySize=auto;html=1;startArrow=none;startFill=0;dashed=1;endArrow=none;endFill=0;fillColor=#d5e8d4;strokeColor=#82b366;" edge="1" parent="1" source="yliCuPorpiqj2RYnoDID-3" target="yliCuPorpiqj2RYnoDID-1">
          <mxGeometry relative="1" as="geometry" />
        </mxCell>
        <mxCell id="yliCuPorpiqj2RYnoDID-3" value="" style="verticalLabelPosition=bottom;html=1;verticalAlign=top;align=center;strokeColor=none;fillColor=#00BEF2;shape=mxgraph.azure.computer;pointerEvents=1;" vertex="1" parent="1">
          <mxGeometry x="390" y="540" width="50" height="45" as="geometry" />
        </mxCell>
        <mxCell id="yliCuPorpiqj2RYnoDID-11" style="edgeStyle=orthogonalEdgeStyle;rounded=0;orthogonalLoop=1;jettySize=auto;html=1;entryX=1;entryY=0.5;entryDx=0;entryDy=0;entryPerimeter=0;" edge="1" parent="1" source="yliCuPorpiqj2RYnoDID-4" target="yliCuPorpiqj2RYnoDID-5">
          <mxGeometry relative="1" as="geometry">
            <mxPoint x="450" y="360" as="targetPoint" />
          </mxGeometry>
        </mxCell>
        <mxCell id="yliCuPorpiqj2RYnoDID-4" value="" style="verticalLabelPosition=bottom;html=1;verticalAlign=top;align=center;strokeColor=#b85450;fillColor=#f8cecc;shape=mxgraph.azure.computer;pointerEvents=1;" vertex="1" parent="1">
          <mxGeometry x="720" y="372.5" width="50" height="45" as="geometry" />
        </mxCell>
        <mxCell id="yliCuPorpiqj2RYnoDID-12" style="edgeStyle=orthogonalEdgeStyle;rounded=0;orthogonalLoop=1;jettySize=auto;html=1;" edge="1" parent="1" source="yliCuPorpiqj2RYnoDID-5" target="yliCuPorpiqj2RYnoDID-6">
          <mxGeometry relative="1" as="geometry" />
        </mxCell>
        <mxCell id="yliCuPorpiqj2RYnoDID-5" value="" style="sketch=0;points=[[0.015,0.015,0],[0.985,0.015,0],[0.985,0.985,0],[0.015,0.985,0],[0.25,0,0],[0.5,0,0],[0.75,0,0],[1,0.25,0],[1,0.5,0],[1,0.75,0],[0.75,1,0],[0.5,1,0],[0.25,1,0],[0,0.75,0],[0,0.5,0],[0,0.25,0]];verticalLabelPosition=bottom;html=1;verticalAlign=top;aspect=fixed;align=center;pointerEvents=1;shape=mxgraph.cisco19.rect;prIcon=l2_switch;fillColor=#FAFAFA;strokeColor=#005073;" vertex="1" parent="1">
          <mxGeometry x="390" y="370" width="50" height="50" as="geometry" />
        </mxCell>
        <mxCell id="yliCuPorpiqj2RYnoDID-6" value="" style="sketch=0;points=[[0.5,0,0],[1,0.5,0],[0.5,1,0],[0,0.5,0],[0.145,0.145,0],[0.8555,0.145,0],[0.855,0.8555,0],[0.145,0.855,0]];verticalLabelPosition=bottom;html=1;verticalAlign=top;aspect=fixed;align=center;pointerEvents=1;shape=mxgraph.cisco19.rect;prIcon=router;fillColor=#FAFAFA;strokeColor=#005073;" vertex="1" parent="1">
          <mxGeometry x="390" y="250" width="50" height="50" as="geometry" />
        </mxCell>
        <mxCell id="yliCuPorpiqj2RYnoDID-7" value="&lt;b&gt;Internet&lt;/b&gt;" style="ellipse;shape=cloud;whiteSpace=wrap;html=1;" vertex="1" parent="1">
          <mxGeometry x="355" y="20" width="120" height="80" as="geometry" />
        </mxCell>
        <mxCell id="yliCuPorpiqj2RYnoDID-8" style="edgeStyle=orthogonalEdgeStyle;rounded=0;orthogonalLoop=1;jettySize=auto;html=1;entryX=0;entryY=0.5;entryDx=0;entryDy=0;entryPerimeter=0;" edge="1" parent="1" source="yliCuPorpiqj2RYnoDID-2" target="yliCuPorpiqj2RYnoDID-5">
          <mxGeometry relative="1" as="geometry" />
        </mxCell>
        <mxCell id="yliCuPorpiqj2RYnoDID-9" style="edgeStyle=orthogonalEdgeStyle;rounded=0;orthogonalLoop=1;jettySize=auto;html=1;entryX=0;entryY=0.5;entryDx=0;entryDy=0;entryPerimeter=0;" edge="1" parent="1" source="yliCuPorpiqj2RYnoDID-1" target="yliCuPorpiqj2RYnoDID-5">
          <mxGeometry relative="1" as="geometry" />
        </mxCell>
        <mxCell id="yliCuPorpiqj2RYnoDID-10" style="edgeStyle=orthogonalEdgeStyle;rounded=0;orthogonalLoop=1;jettySize=auto;html=1;entryX=0.5;entryY=1;entryDx=0;entryDy=0;entryPerimeter=0;" edge="1" parent="1" source="yliCuPorpiqj2RYnoDID-3" target="yliCuPorpiqj2RYnoDID-5">
          <mxGeometry relative="1" as="geometry" />
        </mxCell>
        <mxCell id="yliCuPorpiqj2RYnoDID-14" value="Domain: MyDomain&lt;div&gt;Network : 192.168.10.0/24&lt;/div&gt;&lt;div&gt;Splunk server : 192.168.10.10&lt;/div&gt;&lt;div&gt;Active Directory : 192.168.10.7&lt;/div&gt;&lt;div&gt;Attacker : 192.168.10.250&lt;/div&gt;" style="text;html=1;align=center;verticalAlign=middle;resizable=0;points=[];autosize=1;strokeColor=none;fillColor=none;" vertex="1" parent="1">
          <mxGeometry x="40" y="20" width="190" height="90" as="geometry" />
        </mxCell>
        <mxCell id="yliCuPorpiqj2RYnoDID-15" value="Splunk Server" style="text;html=1;align=center;verticalAlign=middle;resizable=0;points=[];autosize=1;strokeColor=none;fillColor=none;" vertex="1" parent="1">
          <mxGeometry x="187.5" y="540" width="100" height="30" as="geometry" />
        </mxCell>
        <mxCell id="yliCuPorpiqj2RYnoDID-16" value="Active Directory&lt;div&gt;Splunk Universal Forwarder&lt;/div&gt;&lt;div&gt;Sysmon&lt;/div&gt;" style="text;html=1;align=center;verticalAlign=middle;resizable=0;points=[];autosize=1;strokeColor=none;fillColor=none;" vertex="1" parent="1">
          <mxGeometry x="152.5" y="230" width="170" height="60" as="geometry" />
        </mxCell>
        <mxCell id="yliCuPorpiqj2RYnoDID-17" value="Attacker (Kali Linux)" style="text;html=1;align=center;verticalAlign=middle;resizable=0;points=[];autosize=1;strokeColor=none;fillColor=none;" vertex="1" parent="1">
          <mxGeometry x="690" y="420" width="130" height="30" as="geometry" />
        </mxCell>
        <mxCell id="yliCuPorpiqj2RYnoDID-18" value="Target machine (Windows 10)&lt;div&gt;IP : DHCP&lt;/div&gt;&lt;div&gt;Splunk Universal Forwarder&lt;/div&gt;&lt;div&gt;Sysmon&lt;/div&gt;" style="text;html=1;align=center;verticalAlign=middle;resizable=0;points=[];autosize=1;strokeColor=none;fillColor=none;" vertex="1" parent="1">
          <mxGeometry x="335" y="600" width="180" height="70" as="geometry" />
        </mxCell>
        <mxCell id="yliCuPorpiqj2RYnoDID-24" style="rounded=0;orthogonalLoop=1;jettySize=auto;html=1;exitX=0;exitY=0.5;exitDx=0;exitDy=0;exitPerimeter=0;startArrow=none;startFill=0;endArrow=none;endFill=0;dashed=1;fillColor=#d5e8d4;strokeColor=#82b366;" edge="1" parent="1" source="yliCuPorpiqj2RYnoDID-21" target="yliCuPorpiqj2RYnoDID-1">
          <mxGeometry relative="1" as="geometry" />
        </mxCell>
        <mxCell id="yliCuPorpiqj2RYnoDID-21" value="" style="fontColor=#0066CC;verticalAlign=top;verticalLabelPosition=bottom;labelPosition=center;align=center;html=1;outlineConnect=0;fillColor=#CCCCCC;strokeColor=#6881B3;gradientColor=none;gradientDirection=north;strokeWidth=2;shape=mxgraph.networks.firewall;" vertex="1" parent="1">
          <mxGeometry x="392.5" y="150" width="45" height="50" as="geometry" />
        </mxCell>
        <mxCell id="yliCuPorpiqj2RYnoDID-22" style="edgeStyle=orthogonalEdgeStyle;rounded=0;orthogonalLoop=1;jettySize=auto;html=1;entryX=0.5;entryY=1;entryDx=0;entryDy=0;entryPerimeter=0;" edge="1" parent="1" source="yliCuPorpiqj2RYnoDID-6" target="yliCuPorpiqj2RYnoDID-21">
          <mxGeometry relative="1" as="geometry" />
        </mxCell>
        <mxCell id="yliCuPorpiqj2RYnoDID-23" style="edgeStyle=orthogonalEdgeStyle;rounded=0;orthogonalLoop=1;jettySize=auto;html=1;exitX=0.5;exitY=0;exitDx=0;exitDy=0;exitPerimeter=0;entryX=0.498;entryY=0.925;entryDx=0;entryDy=0;entryPerimeter=0;" edge="1" parent="1" source="yliCuPorpiqj2RYnoDID-21" target="yliCuPorpiqj2RYnoDID-7">
          <mxGeometry relative="1" as="geometry" />
        </mxCell>
      </root>
    </mxGraphModel>
  </diagram>
</mxfile>
